<svg xmlns="http://www.w3.org/2000/svg" viewBox="0 0 120 140" width="120" height="140" role="img" aria-label="Brasão do Colégio Estadual do Campo Irmã Ambrósia Sabatovich">
  <defs>
    <linearGradient id="shield" x1="0" y1="0" x2="0" y2="1">
      <stop offset="0" stop-color="#2470c8"/>
      <stop offset="1" stop-color="#0b2a4a"/>
    </linearGradient>
    <linearGradient id="goldg" x1="0" y1="0" x2="1" y2="1">
      <stop offset="0" stop-color="#f1d98a"/>
      <stop offset="1" stop-color="#c9971c"/>
    </linearGradient>
  </defs>
  <!-- Escudo -->
  <path d="M60 4 L110 18 V66 C110 96 88 120 60 132 C32 120 10 96 10 66 V18 Z" fill="url(#goldg)"/>
  <path d="M60 9 L105 21.5 V66 C105 93 85 115 60 126.5 C35 115 15 93 15 66 V21.5 Z" fill="url(#shield)"/>
  <path d="M60 15 L99 26 V66 C99 89 82 108 60 119 C38 108 21 89 21 66 V26 Z" fill="none" stroke="#ffffff" stroke-opacity="0.35" stroke-width="1.2"/>
  <!-- Sol nascente -->
  <g stroke="url(#goldg)" stroke-width="2.4" stroke-linecap="round">
    <path d="M60 32 V24"/><path d="M45 38 L40 32"/><path d="M75 38 L80 32"/><path d="M38 52 H30"/><path d="M82 52 H90"/>
  </g>
  <circle cx="60" cy="54" r="13" fill="url(#goldg)"/>
  <!-- Livro aberto -->
  <path d="M28 76 C40 70 52 70 60 76 C68 70 80 70 92 76 V100 C80 94 68 94 60 100 C52 94 40 94 28 100 Z" fill="#ffffff"/>
  <path d="M60 76 V100" stroke="#0b2a4a" stroke-width="1.6"/>
  <path d="M34 82 C42 79 50 79 56 82 M34 88 C42 85 50 85 56 88 M64 82 C70 79 78 79 86 82 M64 88 C70 85 78 85 86 88" stroke="#2470c8" stroke-width="1.4" stroke-linecap="round" fill="none"/>
  <!-- Espigas (Escola do Campo) -->
  <g fill="url(#goldg)">
    <path d="M27 70 C24 64 25 58 30 54 C33 59 32 65 27 70 Z"/><path d="M24 62 C20 57 20 51 24 46 C28 51 28 57 24 62 Z"/><path d="M31 61 C29 55 31 49 36 46 C37 52 35 58 31 61 Z"/>
    <path d="M93 70 C96 64 95 58 90 54 C87 59 88 65 93 70 Z"/><path d="M96 62 C100 57 100 51 96 46 C92 51 92 57 96 62 Z"/><path d="M89 61 C91 55 89 49 84 46 C83 52 85 58 89 61 Z"/>
  </g>
  <!-- Faixa -->
  <path d="M30 104 H90 L94 111 L90 118 H30 L26 111 Z" fill="#0b2a4a" stroke="url(#goldg)" stroke-width="1.5"/>
  <text x="60" y="115" text-anchor="middle" font-family="Montserrat, Arial, Helvetica, sans-serif" font-size="9.5" font-weight="800" letter-spacing="2" fill="#ffffff">CEIAS</text>
</svg>
